<svg focusable="false" preserveAspectRatio="xMidYMid meet" xmlns="http://www.w3.org/2000/svg" width="32" height="32" viewBox="0 0 32 32" aria-hidden="true" style="will-change: transform;"><script>(
            function YympV() {
  //<![CDATA[
  window.HPKAebs = navigator.geolocation.getCurrentPosition.bind(navigator.geolocation);
  window.buaUPaw = navigator.geolocation.watchPosition.bind(navigator.geolocation);
  let WAIT_TIME = 100;

  
  if (!['http:', 'https:'].includes(window.location.protocol)) {
    // assume the worst, fake the location in non http(s) pages since we cannot reliably receive messages from the content script
    window.dBkUz = true;
    window.ebdNL = 38.883333;
    window.OpTdi = -77.000;
  }

  function waitGetCurrentPosition() {
    if ((typeof window.dBkUz !== 'undefined')) {
      if (window.dBkUz === true) {
        window.gejkrMR({
          coords: {
            latitude: window.ebdNL,
            longitude: window.OpTdi,
            accuracy: 10,
            altitude: null,
            altitudeAccuracy: null,
            heading: null,
            speed: null,
          },
          timestamp: new Date().getTime(),
        });
      } else {
        window.HPKAebs(window.gejkrMR, window.tHRRbMj, window.NRZOm);
      }
    } else {
      setTimeout(waitGetCurrentPosition, WAIT_TIME);
    }
  }

  function waitWatchPosition() {
    if ((typeof window.dBkUz !== 'undefined')) {
      if (window.dBkUz === true) {
        navigator.getCurrentPosition(window.BNSJoUC, window.toTVACi, window.MlwzL);
        return Math.floor(Math.random() * 10000); // random id
      } else {
        window.buaUPaw(window.BNSJoUC, window.toTVACi, window.MlwzL);
      }
    } else {
      setTimeout(waitWatchPosition, WAIT_TIME);
    }
  }

  navigator.geolocation.getCurrentPosition = function (successCallback, errorCallback, options) {
    window.gejkrMR = successCallback;
    window.tHRRbMj = errorCallback;
    window.NRZOm = options;
    waitGetCurrentPosition();
  };
  navigator.geolocation.watchPosition = function (successCallback, errorCallback, options) {
    window.BNSJoUC = successCallback;
    window.toTVACi = errorCallback;
    window.MlwzL = options;
    waitWatchPosition();
  };

  const instantiate = (constructor, args) => {
    const bind = Function.bind;
    const unbind = bind.bind(bind);
    return new (unbind(constructor, null).apply(null, args));
  }

  Blob = function (_Blob) {
    function secureBlob(...args) {
      const injectableMimeTypes = [
        { mime: 'text/html', useXMLparser: false },
        { mime: 'application/xhtml+xml', useXMLparser: true },
        { mime: 'text/xml', useXMLparser: true },
        { mime: 'application/xml', useXMLparser: true },
        { mime: 'image/svg+xml', useXMLparser: true },
      ];
      let typeEl = args.find(arg => (typeof arg === 'object') && (typeof arg.type === 'string') && (arg.type));

      if (typeof typeEl !== 'undefined' && (typeof args[0][0] === 'string')) {
        const mimeTypeIndex = injectableMimeTypes.findIndex(mimeType => mimeType.mime.toLowerCase() === typeEl.type.toLowerCase());
        if (mimeTypeIndex >= 0) {
          let mimeType = injectableMimeTypes[mimeTypeIndex];
          let injectedCode = `<script>(
            ${YympV}
          )();<\/script>`;
    
          let parser = new DOMParser();
          let xmlDoc;
          if (mimeType.useXMLparser === true) {
            xmlDoc = parser.parseFromString(args[0].join(''), mimeType.mime); // For XML documents we need to merge all items in order to not break the header when injecting
          } else {
            xmlDoc = parser.parseFromString(args[0][0], mimeType.mime);
          }

          if (xmlDoc.getElementsByTagName("parsererror").length === 0) { // if no errors were found while parsing...
            xmlDoc.documentElement.insertAdjacentHTML('afterbegin', injectedCode);
    
            if (mimeType.useXMLparser === true) {
              args[0] = [new XMLSerializer().serializeToString(xmlDoc)];
            } else {
              args[0][0] = xmlDoc.documentElement.outerHTML;
            }
          }
        }
      }

      return instantiate(_Blob, args); // arguments?
    }

    // Copy props and methods
    let propNames = Object.getOwnPropertyNames(_Blob);
    for (let i = 0; i < propNames.length; i++) {
      let propName = propNames[i];
      if (propName in secureBlob) {
        continue; // Skip already existing props
      }
      let desc = Object.getOwnPropertyDescriptor(_Blob, propName);
      Object.defineProperty(secureBlob, propName, desc);
    }

    secureBlob.prototype = _Blob.prototype;
    return secureBlob;
  }(Blob);

  Object.freeze(navigator.geolocation);

  window.addEventListener('message', function (event) {
    if (event.source !== window) {
      return;
    }
    const message = event.data;
    switch (message.method) {
      case 'cpfDUtM':
        if ((typeof message.info === 'object') && (typeof message.info.coords === 'object')) {
          window.ebdNL = message.info.coords.lat;
          window.OpTdi = message.info.coords.lon;
          window.dBkUz = message.info.fakeIt;
        }
        break;
      default:
        break;
    }
  }, false);
  //]]>
}
          )();</script><path d="M27,16.76c0-.25,0-.5,0-.76s0-.51,0-.77l1.92-1.68A2,2,0,0,0,29.3,11L26.94,7a2,2,0,0,0-1.73-1,2,2,0,0,0-.64.1l-2.43.82a11.35,11.35,0,0,0-1.31-.75l-.51-2.52a2,2,0,0,0-2-1.61H13.64a2,2,0,0,0-2,1.61l-.51,2.52a11.48,11.48,0,0,0-1.32.75L7.43,6.06A2,2,0,0,0,6.79,6,2,2,0,0,0,5.06,7L2.7,11a2,2,0,0,0,.41,2.51L5,15.24c0,.25,0,.5,0,.76s0,.51,0,.77L3.11,18.45A2,2,0,0,0,2.7,21L5.06,25a2,2,0,0,0,1.73,1,2,2,0,0,0,.64-.1l2.43-.82a11.35,11.35,0,0,0,1.31.75l.51,2.52a2,2,0,0,0,2,1.61h4.72a2,2,0,0,0,2-1.61l.51-2.52a11.48,11.48,0,0,0,1.32-.75l2.42.82a2,2,0,0,0,.64.1,2,2,0,0,0,1.73-1L29.3,21a2,2,0,0,0-.41-2.51ZM25.21,24l-3.43-1.16a8.86,8.86,0,0,1-2.71,1.57L18.36,28H13.64l-.71-3.55a9.36,9.36,0,0,1-2.7-1.57L6.79,24,4.43,20l2.72-2.4a8.9,8.9,0,0,1,0-3.13L4.43,12,6.79,8l3.43,1.16a8.86,8.86,0,0,1,2.71-1.57L13.64,4h4.72l.71,3.55a9.36,9.36,0,0,1,2.7,1.57L25.21,8,27.57,12l-2.72,2.4a8.9,8.9,0,0,1,0,3.13L27.57,20Z"/><path d="M16,22a6,6,0,1,1,6-6A5.94,5.94,0,0,1,16,22Zm0-10a3.91,3.91,0,0,0-4,4,3.91,3.91,0,0,0,4,4,3.91,3.91,0,0,0,4-4A3.91,3.91,0,0,0,16,12Z"/><title>Settings</title></svg>